<svg width="1088" height="1088" viewBox="0 0 1088 1088" fill="none" xmlns="http://www.w3.org/2000/svg">
<circle cx="544" cy="544" r="544" fill="#F472B6"/>
<path fill-rule="evenodd" clip-rule="evenodd" d="M757.423 931.921C687.144 931.921 630.171 874.763 630.171 804.256C630.171 733.748 687.144 676.59 757.423 676.59C827.702 676.59 884.674 733.748 884.674 804.256C884.674 874.763 827.702 931.921 757.423 931.921ZM757.423 884.046C713.498 884.046 677.891 848.323 677.891 804.256C677.891 760.188 713.498 724.465 757.423 724.465C801.347 724.465 836.955 760.188 836.955 804.256C836.955 848.323 801.347 884.046 757.423 884.046Z" fill="white"/>
<path d="M543.746 643.978L644.487 862.957L673.119 820.54V730.933L737.275 700.711L648.729 585.655L543.746 643.978Z" fill="white" stroke="white" stroke-width="2"/>
<path fill-rule="evenodd" clip-rule="evenodd" d="M330.6 930.294C400.879 930.294 457.851 873.322 457.851 803.042C457.851 732.763 400.879 675.791 330.6 675.791C260.321 675.791 203.349 732.763 203.349 803.042C203.349 873.322 260.321 930.294 330.6 930.294ZM330.6 882.575C374.524 882.575 410.132 846.967 410.132 803.043C410.132 759.118 374.524 723.51 330.6 723.51C286.676 723.51 251.068 759.118 251.068 803.043C251.068 846.967 286.676 882.575 330.6 882.575Z" fill="white"/>
<path d="M543.216 643.978L442.475 862.957L413.844 820.54V730.933L349.688 700.711L438.233 585.655L543.216 643.978Z" fill="white" stroke="white" stroke-width="2"/>
<path d="M409.005 219.806L640.245 607.923L568.115 652.461L388.851 372.508C363.924 337.513 353.847 253.209 409.005 219.806Z" stroke="white" stroke-width="12"/>
<path d="M513.551 342.357C351.023 294.959 227.762 423.141 189.006 516.316L250.669 522.827L254.488 638.481C349.763 478.037 424.278 438.674 579.033 464.523C733.787 490.372 888.319 298.743 888.319 298.743L821.245 284.252L822.837 176.578C763.134 220.022 676.079 389.756 513.551 342.357Z" fill="#F472B6" stroke="white" stroke-width="12"/>
<path d="M676.3 219.806L445.126 607.923L517.236 652.461L696.448 372.508C721.368 337.513 731.442 253.209 676.3 219.806Z" fill="#F472B6" stroke="white" stroke-width="12"/>
<circle cx="543.746" cy="527.331" r="11.6647" fill="white"/>
<path d="M341.405 468.004L340.115 466.482C342.338 464.599 343.494 463.122 343.583 462.051L330.128 454.399L316.211 466.189L321.468 480.037C322.688 480.498 324.555 479.664 327.068 477.535L328.357 479.057L316.469 489.128L315.18 487.606C317.838 485.354 318.93 483.557 318.457 482.215L299.176 430.942L305.048 425.968L352.598 453.293C353.796 454.021 355.773 453.218 358.527 450.885L359.817 452.407L341.405 468.004ZM306.763 441.074L315.054 463.06L327.232 452.744L306.763 441.074Z" fill="white"/>
<path d="M362.654 447.697C361.817 446.062 361.717 444.477 362.354 442.942C363.019 441.321 364.112 440.121 365.634 439.342C366.987 438.649 368.557 438.45 370.345 438.745C372.103 438.983 373.386 439.891 374.194 441.47C375.031 443.105 375.117 444.733 374.453 446.354C373.788 447.974 372.695 449.174 371.173 449.954C369.82 450.646 368.25 450.845 366.462 450.55C364.732 450.227 363.462 449.276 362.654 447.697Z" fill="white"/>
<path d="M401.184 382.007C396.021 383.289 392.552 386.402 390.777 391.345C389.064 396.273 389.101 402.333 390.886 409.524C392.962 417.884 396.063 423.933 400.189 427.673C404.315 431.412 408.867 432.663 413.846 431.427C416.858 430.679 419.341 428.986 421.296 426.347C423.298 423.632 424.446 420.899 424.743 418.15L428.798 418.318C428.223 422.05 426.689 425.465 424.196 428.564C421.749 431.586 417.943 433.738 412.78 435.02C404.544 437.065 397.241 436.039 390.873 431.943C384.505 427.847 380.406 422.111 378.574 414.735C376.453 406.191 377.625 398.559 382.09 391.838C386.556 385.117 392.63 380.803 400.313 378.895C402.096 378.453 404.423 378.364 407.295 378.63C410.167 378.896 411.788 378.983 412.156 378.891C412.894 378.708 413.11 378.002 412.805 376.772L414.926 376.246L418.891 389.063L416.863 389.567C415.868 387.138 413.667 385.107 410.26 383.473C406.852 381.839 403.827 381.351 401.184 382.007Z" fill="white"/>
<path d="M439.669 424.818C439.644 422.981 440.258 421.516 441.51 420.422C442.824 419.264 444.336 418.674 446.046 418.65C447.566 418.63 449.061 419.148 450.532 420.204C452.003 421.198 452.75 422.581 452.774 424.354C452.799 426.191 452.155 427.688 450.84 428.846C449.526 430.004 448.014 430.595 446.304 430.618C444.784 430.639 443.289 430.121 441.817 429.064C440.41 428.006 439.693 426.591 439.669 424.818Z" fill="white"/>
</svg>
